<svg width="284" height="320" viewBox="0 0 284 320" fill="none" xmlns="http://www.w3.org/2000/svg">
<g filter="url(#filter0_b)">
<rect width="284" height="320" rx="20" fill="white" fill-opacity="0.3"/>
</g>
<path fill-rule="evenodd" clip-rule="evenodd" d="M98.9773 97.7569H100.608C104.161 97.7569 106.084 100.061 106.084 102.851C106.084 106.023 104.161 108.23 100.892 108.23H98.9698V97.7569H98.9773ZM95.4241 108.23H92.3496V109.097H102.628C105.994 109.097 109.831 107.272 109.831 102.851C109.831 99.3951 106.757 97.5699 103.683 97.3754V97.2782C106.278 97.0837 108.874 95.3557 108.874 91.997C108.874 89.0197 106.278 87 101.67 87H92.3496V87.8677H95.4241V108.23ZM98.9773 87.8677H99.845C103.398 87.8677 105.223 89.7902 105.223 92.1914C105.223 95.6474 102.822 96.8967 99.9423 96.8967H98.9848V87.8677H98.9773Z" fill="#005189"/>
<path fill-rule="evenodd" clip-rule="evenodd" d="M121.464 103.24C121.464 106.023 121.179 108.716 118.195 108.716C115.12 108.716 114.828 106.023 114.828 103.24V101.609C114.828 98.9164 115.023 96.2309 118.195 96.2309C121.366 96.2309 121.464 98.9238 121.464 101.609V103.24ZM111.47 102.47C111.47 106.412 114.252 109.576 118.195 109.576C122.137 109.576 124.822 106.307 124.822 102.47C124.822 98.5274 122.129 95.2659 118.195 95.2659C114.252 95.2659 111.47 98.5274 111.47 102.47Z" fill="#005189"/>
<path fill-rule="evenodd" clip-rule="evenodd" d="M155.956 103.24C155.956 106.023 155.664 108.716 152.687 108.716C149.613 108.716 149.328 106.023 149.328 103.24V101.707C149.328 98.9164 149.613 96.2309 152.687 96.2309C155.859 96.2309 155.956 98.9238 155.956 101.707V103.24ZM145.962 102.47C145.962 106.412 148.745 109.673 152.687 109.673C156.629 109.673 159.412 106.315 159.412 102.47C159.412 98.5274 156.629 95.2659 152.687 95.2659C148.745 95.2659 145.962 98.5274 145.962 102.47Z" fill="#005189"/>
<path fill-rule="evenodd" clip-rule="evenodd" d="M169.309 108.23H171.231V98.8191C171.231 97.2782 170.176 96.6124 169.114 96.6124C167.67 96.6124 166.137 98.0561 165.464 99.4924V108.237H167.865V109.105H159.696V108.237H162.292V96.7022H159.794V95.8344H162.195C163.638 95.8344 164.888 95.8344 165.366 95.1612V97.7569H165.464C166.713 96.2234 168.441 95.1612 170.363 95.1612C173.438 95.1612 174.493 97.2782 174.493 99.1034V108.23H176.991V109.097H169.309V108.23V108.23Z" fill="#005189"/>
<path fill-rule="evenodd" clip-rule="evenodd" d="M131.644 103.719C133.47 103.913 134.24 105.065 134.24 106.217C134.24 107.848 132.894 108.716 131.36 108.716C128.578 108.716 127.515 106.217 127.328 104.587H126.655L126.752 109.389H127.426C127.523 108.91 127.62 108.716 128.002 108.716C128.675 108.716 129.445 109.584 131.457 109.584C134.435 109.584 136.26 107.758 136.26 104.976C136.26 102.956 135.108 101.131 132.512 100.846L130.979 100.555C129.056 100.173 128.286 99.4999 128.286 98.3479C128.286 97.1959 129.243 96.2309 130.979 96.2309C132.998 96.2309 134.15 97.3829 134.435 99.3054H135.108V95.4529H134.435C134.435 95.7447 134.337 96.0289 133.956 96.0289C133.38 96.0289 132.609 95.2585 130.979 95.2585C128.578 95.2585 126.752 96.8892 126.752 99.2904C126.752 102.17 128.675 103.322 130.694 103.517L131.644 103.719Z" fill="#005189"/>
<path fill-rule="evenodd" clip-rule="evenodd" d="M145.768 106.98C145.386 107.556 144.713 108.327 143.748 108.327C142.88 108.327 142.117 107.945 142.117 106.696V96.7022H145.768V95.8345H142.117V91.3237H141.541C141.062 94.4954 139.237 95.8419 136.641 95.8419V96.7097H138.945V106.599C138.945 108.806 140.486 109.673 142.596 109.673C144.616 109.673 145.67 108.619 146.246 107.751L145.768 106.98Z" fill="#005189"/>
<path fill-rule="evenodd" clip-rule="evenodd" d="M168.059 130.903H165.082V131.86H174.014V130.903H171.612V114.865C170.842 115.635 169.69 115.732 168.441 115.732H165.464V116.69H168.059V130.903V130.903Z" fill="#005189"/>
<path fill-rule="evenodd" clip-rule="evenodd" d="M111.47 130.903H108.492V131.86H117.521V130.903H115.023V114.865C114.35 115.635 113.1 115.732 111.948 115.732H108.971V116.69H111.47V130.903Z" fill="#005189"/>
<path fill-rule="evenodd" clip-rule="evenodd" d="M178.435 130.903H175.555V131.86H184.681V130.903H181.988V116.593H188.421V130.91H186.02V131.868H194.862V130.91H191.982V114.865C191.309 115.635 189.962 115.732 188.81 115.732H181.988V110.354C181.988 106.704 183.334 103.824 187.269 103.824C188.9 103.824 190.052 104.497 190.052 105.17C190.052 105.649 189.67 105.843 189.281 106.038C188.803 106.232 188.414 106.808 188.414 107.482C188.414 108.536 189.371 109.209 190.142 109.209C191.391 109.209 192.259 108.252 192.259 106.808C192.259 105.08 190.531 102.866 186.977 102.866C180.634 102.866 178.427 108.147 178.427 113.047V115.74H175.158V116.608H178.427V130.903H178.435Z" fill="#005189"/>
<path fill-rule="evenodd" clip-rule="evenodd" d="M83.1262 120.049C87.0684 120.916 88.7964 123.318 88.7964 125.906C88.7964 128.98 86.4924 131.479 82.8419 131.479C79.1914 131.479 75.6382 128.404 75.0622 122.158H74.0972V132.152H75.0547C75.152 131.479 75.4362 131 76.2067 131C77.6505 131 79.184 132.541 82.9317 132.541C88.3101 132.541 91.2874 129.175 91.2874 123.991C91.2874 119.959 89.3649 116.974 84.1809 115.635L82.1612 115.156C77.5532 114.102 76.2067 111.888 76.2067 109.681C76.2067 106.606 78.5107 104.587 81.3009 104.587C85.6246 104.587 88.1231 108.237 88.6991 112.658H89.7539V104.392H88.7964C88.6991 104.871 88.4149 105.447 87.6444 105.447C86.2979 105.447 85.2431 103.427 81.2037 103.427C77.1717 103.427 74 106.502 74 111.02C74 115.822 76.304 118.418 81.2037 119.57L83.1262 120.049Z" fill="#005189"/>
<path fill-rule="evenodd" clip-rule="evenodd" d="M156.046 128.793C156.046 131.576 157.871 132.541 160.272 132.541C163.152 132.541 164.117 130.91 164.499 129.945L163.825 129.369C163.347 130.237 162.576 131.195 161.327 131.195C160.369 131.195 159.599 130.716 159.599 129.175V116.593H163.825V115.725H159.599V110.728H158.926C158.35 114.573 156.524 115.725 153.068 115.725V116.593H156.046V128.793Z" fill="#005189"/>
<path fill-rule="evenodd" clip-rule="evenodd" d="M144.713 130.903H147.309V118.897C147.309 116.974 146.351 116.204 145.005 116.204C142.701 116.204 140.973 118.508 140.105 119.66V130.903H142.888V131.86H133.761V130.903H136.544V116.593H133.761V115.725H136.739C138.467 115.725 139.334 115.725 140.008 114.857V118.029H140.105C140.875 117.071 142.701 114.857 145.872 114.857C149.239 114.857 150.967 117.064 150.967 119.757V130.903H153.749V131.86H144.713V130.903Z" fill="#005189"/>
<path fill-rule="evenodd" clip-rule="evenodd" d="M106.473 126.587C106.091 128.606 104.453 131.195 101.67 131.195C98.9773 131.195 97.6383 129.564 97.6383 125.913V122.166C97.6383 118.612 98.9847 116.017 101.865 116.017C103.593 116.017 104.647 116.885 104.647 117.55C104.647 117.932 104.356 118.126 104.169 118.418C103.877 118.71 103.69 119.091 103.69 119.667C103.69 120.438 104.266 121.298 105.418 121.298C106.473 121.298 107.34 120.43 107.34 119.091C107.34 117.169 105.036 115.059 101.573 115.059C97.152 115.059 93.696 118.515 93.696 123.804C93.696 128.606 96.0973 132.549 101.289 132.549C104.745 132.549 107.056 129.669 107.438 126.594H106.473V126.587Z" fill="#005189"/>
<path fill-rule="evenodd" clip-rule="evenodd" d="M207.93 126.489C207.549 128.606 205.91 131.195 203.225 131.195C200.442 131.195 199.193 129.564 199.193 125.816V122.166C199.193 118.515 200.442 115.919 203.419 115.919C205.147 115.919 206.112 116.877 206.112 117.55C206.112 117.932 205.918 118.126 205.634 118.418C205.439 118.71 205.155 118.994 205.155 119.57C205.155 120.438 205.828 121.201 206.883 121.201C207.938 121.201 208.805 120.333 208.805 118.994C208.805 117.071 206.599 115.052 203.038 115.052C198.617 115.052 195.258 118.508 195.258 123.796C195.258 128.599 197.66 132.541 202.754 132.541C206.307 132.541 208.521 129.661 209 126.489H207.93V126.489Z" fill="#005189"/>
<path fill-rule="evenodd" clip-rule="evenodd" d="M129.049 121.014C129.049 121.208 128.952 121.305 128.757 121.305H122.608V120.153C122.608 117.558 123.955 115.927 125.877 115.927C127.897 115.927 129.049 117.468 129.049 120.153V121.014ZM131.45 126.489C130.971 128.793 129.333 131.195 126.648 131.195C124.052 131.195 122.616 129.564 122.616 126.198V122.353H132.415C132.61 122.353 132.707 122.255 132.707 121.971C132.707 121.777 132.707 121.59 132.707 121.395C132.707 118.897 130.59 115.052 125.885 115.052C121.755 115.052 118.681 119.181 118.681 123.796C118.681 129.272 121.755 132.541 125.982 132.541C129.348 132.541 131.839 130.14 132.423 126.489H131.45V126.489Z" fill="#005189"/>
<defs>
<filter id="filter0_b" x="-20" y="-20" width="324" height="360" filterUnits="userSpaceOnUse" color-interpolation-filters="sRGB">
<feFlood flood-opacity="0" result="BackgroundImageFix"/>
<feGaussianBlur in="BackgroundImage" stdDeviation="10"/>
<feComposite in2="SourceAlpha" operator="in" result="effect1_backgroundBlur"/>
<feBlend mode="normal" in="SourceGraphic" in2="effect1_backgroundBlur" result="shape"/>
</filter>
</defs>
</svg>
